<svg width="188" height="56" viewBox="0 0 188 56" fill="none" xmlns="http://www.w3.org/2000/svg">
<rect width="188" height="56" rx="28" fill="url(#paint0_linear_573_3912)"/>
<g clip-path="url(#clip0_573_3912)">
<path d="M28 16C25.6266 16 23.3066 16.7038 21.3332 18.0224C19.3598 19.3409 17.8217 21.2151 16.9135 23.4078C16.0052 25.6005 15.7676 28.0133 16.2306 30.3411C16.6936 32.6689 17.8365 34.8071 19.5147 36.4853C21.193 38.1635 23.3312 39.3064 25.6589 39.7694C27.9867 40.2324 30.3995 39.9948 32.5922 39.0866C34.7849 38.1783 36.6591 36.6402 37.9776 34.6668C39.2962 32.6935 40 30.3734 40 28C39.9966 24.8185 38.7312 21.7682 36.4815 19.5185C34.2318 17.2688 31.1815 16.0034 28 16ZM28 38C26.0222 38 24.0888 37.4135 22.4443 36.3147C20.7998 35.2159 19.5181 33.6541 18.7612 31.8268C18.0043 29.9996 17.8063 27.9889 18.1922 26.0491C18.578 24.1093 19.5304 22.3275 20.9289 20.9289C22.3275 19.5304 24.1093 18.578 26.0491 18.1921C27.9889 17.8063 29.9996 18.0043 31.8268 18.7612C33.6541 19.5181 35.2159 20.7998 36.3147 22.4443C37.4135 24.0888 38 26.0222 38 28C37.9971 30.6513 36.9426 33.1931 35.0679 35.0679C33.1931 36.9426 30.6513 37.9971 28 38Z" fill="white"/>
<path d="M28.717 21.063C28.1403 20.9579 27.5476 20.9808 26.9808 21.1302C26.414 21.2796 25.8869 21.5517 25.4369 21.9273C24.9869 22.3029 24.6249 22.7728 24.3766 23.3038C24.1283 23.8347 23.9997 24.4138 24 25C24 25.2652 24.1054 25.5195 24.2929 25.7071C24.4804 25.8946 24.7348 26 25 26C25.2652 26 25.5196 25.8946 25.7071 25.7071C25.8946 25.5195 26 25.2652 26 25C25.9997 24.7057 26.0644 24.4151 26.1894 24.1487C26.3144 23.8824 26.4966 23.6468 26.723 23.459C26.9495 23.2711 27.2146 23.1355 27.4994 23.0619C27.7843 22.9883 28.0819 22.9784 28.371 23.033C28.766 23.1096 29.1293 23.3023 29.4142 23.5864C29.6992 23.8705 29.8931 24.2332 29.971 24.628C30.0497 25.0424 29.9954 25.471 29.8158 25.8527C29.6362 26.2344 29.3405 26.5495 28.971 26.753C28.3592 27.1074 27.8536 27.6195 27.5069 28.2358C27.1603 28.852 26.9852 29.55 27 30.257V31C27 31.2652 27.1054 31.5195 27.2929 31.7071C27.4804 31.8946 27.7348 32 28 32C28.2652 32 28.5196 31.8946 28.7071 31.7071C28.8946 31.5195 29 31.2652 29 31V30.257C28.9875 29.909 29.0668 29.5638 29.2301 29.2562C29.3933 28.9487 29.6347 28.6896 29.93 28.505C30.6545 28.107 31.238 27.4944 31.6001 26.7514C31.9622 26.0083 32.0853 25.1713 31.9523 24.3555C31.8193 23.5396 31.4368 22.785 30.8575 22.1954C30.2782 21.6059 29.5304 21.2102 28.717 21.063Z" fill="white"/>
<path d="M29 34C29 33.4477 28.5523 33 28 33C27.4477 33 27 33.4477 27 34C27 34.5523 27.4477 35 28 35C28.5523 35 29 34.5523 29 34Z" fill="white"/>
</g>
<path d="M56.3516 23.6406L52.9531 33.5H50.8984L55.1797 22.125H56.4922L56.3516 23.6406ZM59.1953 33.5L55.7891 23.6406L55.6406 22.125H56.9609L61.2578 33.5H59.1953ZM59.0312 29.2812V30.8359H52.8438V29.2812H59.0312ZM67.0859 31.2109C67.0859 31.0234 67.0391 30.8542 66.9453 30.7031C66.8516 30.5469 66.6719 30.4062 66.4062 30.2812C66.1458 30.1562 65.7604 30.0417 65.25 29.9375C64.8021 29.8385 64.3906 29.7214 64.0156 29.5859C63.6458 29.4453 63.3281 29.276 63.0625 29.0781C62.7969 28.8802 62.5911 28.6458 62.4453 28.375C62.2995 28.1042 62.2266 27.7917 62.2266 27.4375C62.2266 27.0938 62.3021 26.7682 62.4531 26.4609C62.6042 26.1536 62.8203 25.8828 63.1016 25.6484C63.3828 25.4141 63.724 25.2292 64.125 25.0938C64.5312 24.9583 64.9844 24.8906 65.4844 24.8906C66.1927 24.8906 66.7995 25.0104 67.3047 25.25C67.8151 25.4844 68.2057 25.8047 68.4766 26.2109C68.7474 26.612 68.8828 27.0651 68.8828 27.5703H67C67 27.3464 66.9427 27.138 66.8281 26.9453C66.7188 26.7474 66.5521 26.5885 66.3281 26.4688C66.1042 26.3438 65.8229 26.2812 65.4844 26.2812C65.1615 26.2812 64.8932 26.3333 64.6797 26.4375C64.4714 26.5365 64.3151 26.6667 64.2109 26.8281C64.112 26.9896 64.0625 27.1667 64.0625 27.3594C64.0625 27.5 64.0885 27.6276 64.1406 27.7422C64.1979 27.8516 64.2917 27.9531 64.4219 28.0469C64.5521 28.1354 64.7292 28.2188 64.9531 28.2969C65.1823 28.375 65.4688 28.4505 65.8125 28.5234C66.4583 28.6589 67.013 28.8333 67.4766 29.0469C67.9453 29.2552 68.3047 29.526 68.5547 29.8594C68.8047 30.1875 68.9297 30.6042 68.9297 31.1094C68.9297 31.4844 68.849 31.8281 68.6875 32.1406C68.5312 32.4479 68.3021 32.7161 68 32.9453C67.6979 33.1693 67.3359 33.3438 66.9141 33.4688C66.4974 33.5938 66.0286 33.6562 65.5078 33.6562C64.7422 33.6562 64.0938 33.5208 63.5625 33.25C63.0312 32.974 62.6276 32.6224 62.3516 32.1953C62.0807 31.763 61.9453 31.3151 61.9453 30.8516H63.7656C63.7865 31.2005 63.8828 31.4792 64.0547 31.6875C64.2318 31.8906 64.4505 32.0391 64.7109 32.1328C64.9766 32.2214 65.25 32.2656 65.5312 32.2656C65.8698 32.2656 66.1536 32.2214 66.3828 32.1328C66.612 32.0391 66.7865 31.9141 66.9062 31.7578C67.026 31.5964 67.0859 31.4141 67.0859 31.2109ZM72.4766 21.5V33.5H70.5859V21.5H72.4766ZM77.7266 25.0469L74.0469 29.125L72.0312 31.1875L71.5391 29.5938L73.0625 27.7109L75.4531 25.0469H77.7266ZM75.8594 33.5L73.1172 29.5312L74.3047 28.2109L78.0391 33.5H75.8594ZM83.8906 22.125H85.6406L88.9297 30.8984L92.2109 22.125H93.9609L89.6172 33.5H88.2266L83.8906 22.125ZM83.0938 22.125H84.7578L85.0469 29.7188V33.5H83.0938V22.125ZM93.0938 22.125H94.7656V33.5H92.8047V29.7188L93.0938 22.125ZM100.633 33.6562C100.008 33.6562 99.4427 33.5547 98.9375 33.3516C98.4375 33.1432 98.0104 32.8542 97.6562 32.4844C97.3073 32.1146 97.0391 31.6797 96.8516 31.1797C96.6641 30.6797 96.5703 30.1406 96.5703 29.5625V29.25C96.5703 28.5885 96.6667 27.9896 96.8594 27.4531C97.0521 26.9167 97.3203 26.4583 97.6641 26.0781C98.0078 25.6927 98.4141 25.3984 98.8828 25.1953C99.3516 24.9922 99.8594 24.8906 100.406 24.8906C101.01 24.8906 101.539 24.9922 101.992 25.1953C102.445 25.3984 102.82 25.6849 103.117 26.0547C103.419 26.4193 103.643 26.8542 103.789 27.3594C103.94 27.8646 104.016 28.4219 104.016 29.0312V29.8359H97.4844V28.4844H102.156V28.3359C102.146 27.9974 102.078 27.6797 101.953 27.3828C101.833 27.0859 101.648 26.8464 101.398 26.6641C101.148 26.4818 100.815 26.3906 100.398 26.3906C100.086 26.3906 99.8073 26.4583 99.5625 26.5938C99.3229 26.724 99.1224 26.9141 98.9609 27.1641C98.7995 27.4141 98.6745 27.7161 98.5859 28.0703C98.5026 28.4193 98.4609 28.8125 98.4609 29.25V29.5625C98.4609 29.9323 98.5104 30.276 98.6094 30.5938C98.7135 30.9062 98.8646 31.1797 99.0625 31.4141C99.2604 31.6484 99.5 31.8333 99.7812 31.9688C100.062 32.099 100.383 32.1641 100.742 32.1641C101.195 32.1641 101.599 32.0729 101.953 31.8906C102.307 31.7083 102.615 31.4505 102.875 31.1172L103.867 32.0781C103.685 32.3438 103.448 32.599 103.156 32.8438C102.865 33.0833 102.508 33.2786 102.086 33.4297C101.669 33.5807 101.185 33.6562 100.633 33.6562ZM114.086 23.6406L110.688 33.5H108.633L112.914 22.125H114.227L114.086 23.6406ZM116.93 33.5L113.523 23.6406L113.375 22.125H114.695L118.992 33.5H116.93ZM116.766 29.2812V30.8359H110.578V29.2812H116.766ZM121.805 26.8516V33.5H119.922V25.0469H121.695L121.805 26.8516ZM121.469 28.9609L120.859 28.9531C120.865 28.3542 120.948 27.8047 121.109 27.3047C121.276 26.8047 121.505 26.375 121.797 26.0156C122.094 25.6562 122.448 25.3802 122.859 25.1875C123.271 24.9896 123.729 24.8906 124.234 24.8906C124.641 24.8906 125.008 24.9479 125.336 25.0625C125.669 25.1719 125.953 25.3516 126.188 25.6016C126.427 25.8516 126.609 26.1771 126.734 26.5781C126.859 26.974 126.922 27.4609 126.922 28.0391V33.5H125.031V28.0312C125.031 27.625 124.971 27.3047 124.852 27.0703C124.737 26.8307 124.568 26.6615 124.344 26.5625C124.125 26.4583 123.852 26.4062 123.523 26.4062C123.201 26.4062 122.911 26.474 122.656 26.6094C122.401 26.7448 122.185 26.9297 122.008 27.1641C121.836 27.3984 121.703 27.6693 121.609 27.9766C121.516 28.2839 121.469 28.612 121.469 28.9609ZM131.297 32.5781L133.594 25.0469H135.609L132.219 34.7891C132.141 34.9974 132.039 35.224 131.914 35.4688C131.789 35.7135 131.625 35.9453 131.422 36.1641C131.224 36.388 130.977 36.5677 130.68 36.7031C130.383 36.8438 130.023 36.9141 129.602 36.9141C129.435 36.9141 129.273 36.8984 129.117 36.8672C128.966 36.8411 128.823 36.8125 128.688 36.7812L128.68 35.3438C128.732 35.349 128.794 35.3542 128.867 35.3594C128.945 35.3646 129.008 35.3672 129.055 35.3672C129.367 35.3672 129.628 35.3281 129.836 35.25C130.044 35.1771 130.214 35.0573 130.344 34.8906C130.479 34.724 130.594 34.5 130.688 34.2188L131.297 32.5781ZM130 25.0469L132.008 31.375L132.344 33.3594L131.039 33.6953L127.969 25.0469H130ZM140.562 25.0469V26.4219H135.797V25.0469H140.562ZM137.172 22.9766H139.055V31.1641C139.055 31.4245 139.091 31.625 139.164 31.7656C139.242 31.901 139.349 31.9922 139.484 32.0391C139.62 32.0859 139.779 32.1094 139.961 32.1094C140.091 32.1094 140.216 32.1016 140.336 32.0859C140.456 32.0703 140.552 32.0547 140.625 32.0391L140.633 33.4766C140.477 33.5234 140.294 33.5651 140.086 33.6016C139.883 33.638 139.648 33.6562 139.383 33.6562C138.951 33.6562 138.568 33.5807 138.234 33.4297C137.901 33.2734 137.641 33.0208 137.453 32.6719C137.266 32.3229 137.172 31.8594 137.172 31.2812V22.9766ZM143.875 21.5V33.5H142V21.5H143.875ZM143.547 28.9609L142.938 28.9531C142.943 28.3698 143.023 27.8307 143.18 27.3359C143.341 26.8411 143.565 26.4115 143.852 26.0469C144.143 25.6771 144.492 25.3932 144.898 25.1953C145.305 24.9922 145.755 24.8906 146.25 24.8906C146.667 24.8906 147.042 24.9479 147.375 25.0625C147.714 25.1771 148.005 25.362 148.25 25.6172C148.495 25.8672 148.68 26.1953 148.805 26.6016C148.935 27.0026 149 27.4922 149 28.0703V33.5H147.109V28.0547C147.109 27.6484 147.049 27.3255 146.93 27.0859C146.815 26.8464 146.646 26.6745 146.422 26.5703C146.198 26.4609 145.924 26.4062 145.602 26.4062C145.263 26.4062 144.964 26.474 144.703 26.6094C144.448 26.7448 144.234 26.9297 144.062 27.1641C143.891 27.3984 143.76 27.6693 143.672 27.9766C143.589 28.2839 143.547 28.612 143.547 28.9609ZM152.922 25.0469V33.5H151.031V25.0469H152.922ZM150.906 22.8281C150.906 22.5417 151 22.3047 151.188 22.1172C151.38 21.9245 151.646 21.8281 151.984 21.8281C152.318 21.8281 152.581 21.9245 152.773 22.1172C152.966 22.3047 153.062 22.5417 153.062 22.8281C153.062 23.1094 152.966 23.3438 152.773 23.5312C152.581 23.7188 152.318 23.8125 151.984 23.8125C151.646 23.8125 151.38 23.7188 151.188 23.5312C151 23.3438 150.906 23.1094 150.906 22.8281ZM156.852 26.8516V33.5H154.969V25.0469H156.742L156.852 26.8516ZM156.516 28.9609L155.906 28.9531C155.911 28.3542 155.995 27.8047 156.156 27.3047C156.323 26.8047 156.552 26.375 156.844 26.0156C157.141 25.6562 157.495 25.3802 157.906 25.1875C158.318 24.9896 158.776 24.8906 159.281 24.8906C159.688 24.8906 160.055 24.9479 160.383 25.0625C160.716 25.1719 161 25.3516 161.234 25.6016C161.474 25.8516 161.656 26.1771 161.781 26.5781C161.906 26.974 161.969 27.4609 161.969 28.0391V33.5H160.078V28.0312C160.078 27.625 160.018 27.3047 159.898 27.0703C159.784 26.8307 159.615 26.6615 159.391 26.5625C159.172 26.4583 158.898 26.4062 158.57 26.4062C158.247 26.4062 157.958 26.474 157.703 26.6094C157.448 26.7448 157.232 26.9297 157.055 27.1641C156.883 27.3984 156.75 27.6693 156.656 27.9766C156.562 28.2839 156.516 28.612 156.516 28.9609ZM169.305 25.0469H171.016V33.2656C171.016 34.026 170.854 34.6719 170.531 35.2031C170.208 35.7344 169.758 36.138 169.18 36.4141C168.602 36.6953 167.932 36.8359 167.172 36.8359C166.849 36.8359 166.49 36.7891 166.094 36.6953C165.703 36.6016 165.323 36.4505 164.953 36.2422C164.589 36.0391 164.284 35.7708 164.039 35.4375L164.922 34.3281C165.224 34.6875 165.557 34.9505 165.922 35.1172C166.286 35.2839 166.669 35.3672 167.07 35.3672C167.503 35.3672 167.87 35.2865 168.172 35.125C168.479 34.9688 168.716 34.737 168.883 34.4297C169.049 34.1224 169.133 33.7474 169.133 33.3047V26.9609L169.305 25.0469ZM163.562 29.3672V29.2031C163.562 28.5625 163.641 27.9792 163.797 27.4531C163.953 26.9219 164.177 26.4661 164.469 26.0859C164.76 25.7005 165.115 25.4062 165.531 25.2031C165.948 24.9948 166.419 24.8906 166.945 24.8906C167.492 24.8906 167.958 24.9896 168.344 25.1875C168.734 25.3854 169.06 25.6693 169.32 26.0391C169.581 26.4036 169.784 26.8411 169.93 27.3516C170.081 27.8568 170.193 28.4193 170.266 29.0391V29.5625C170.198 30.1667 170.083 30.7188 169.922 31.2188C169.76 31.7188 169.547 32.151 169.281 32.5156C169.016 32.8802 168.688 33.1615 168.297 33.3594C167.911 33.5573 167.456 33.6562 166.93 33.6562C166.414 33.6562 165.948 33.5495 165.531 33.3359C165.12 33.1224 164.766 32.8229 164.469 32.4375C164.177 32.0521 163.953 31.599 163.797 31.0781C163.641 30.5521 163.562 29.9818 163.562 29.3672ZM165.445 29.2031V29.3672C165.445 29.7526 165.482 30.112 165.555 30.4453C165.633 30.7786 165.75 31.0729 165.906 31.3281C166.068 31.5781 166.271 31.776 166.516 31.9219C166.766 32.0625 167.06 32.1328 167.398 32.1328C167.841 32.1328 168.203 32.0391 168.484 31.8516C168.771 31.6641 168.99 31.4115 169.141 31.0938C169.297 30.7708 169.406 30.4115 169.469 30.0156V28.6016C169.438 28.2943 169.372 28.0078 169.273 27.7422C169.18 27.4766 169.052 27.2448 168.891 27.0469C168.729 26.8438 168.526 26.6875 168.281 26.5781C168.036 26.4635 167.747 26.4062 167.414 26.4062C167.076 26.4062 166.781 26.4792 166.531 26.625C166.281 26.7708 166.076 26.9714 165.914 27.2266C165.758 27.4818 165.641 27.7786 165.562 28.1172C165.484 28.4557 165.445 28.8177 165.445 29.2031Z" fill="white"/>
<defs>
<linearGradient id="paint0_linear_573_3912" x1="0" y1="28" x2="175.182" y2="28" gradientUnits="userSpaceOnUse">
<stop offset="0.305" stop-color="#FE7F00"/>
<stop offset="1" stop-color="#FF9F3F"/>
</linearGradient>
<clipPath id="clip0_573_3912">
<rect width="24" height="24" fill="white" transform="translate(16 16)"/>
</clipPath>
</defs>
</svg>
